<svg id="visual" viewBox="0 0 900 450" width="900" height="450" xmlns="http://www.w3.org/2000/svg" xmlns:xlink="http://www.w3.org/1999/xlink" version="1.1"><rect x="0" y="0" width="900" height="450" fill="#A3B18A"></rect><defs><linearGradient id="grad1_0" x1="50%" y1="0%" x2="100%" y2="100%"><stop offset="10%" stop-color="#a3b18a" stop-opacity="1"></stop><stop offset="90%" stop-color="#a3b18a" stop-opacity="1"></stop></linearGradient></defs><defs><linearGradient id="grad2_0" x1="0%" y1="0%" x2="50%" y2="100%"><stop offset="10%" stop-color="#a3b18a" stop-opacity="1"></stop><stop offset="90%" stop-color="#a3b18a" stop-opacity="1"></stop></linearGradient></defs><g transform="translate(900, 0)"><path d="M0 292.5C-27.4 279.9 -54.7 267.3 -84.4 259.6C-114 252 -145.9 249.4 -170.5 234.6C-195.1 219.9 -212.4 193 -230.6 167.5C-248.7 142.1 -267.7 118.1 -278.2 90.4C-288.6 62.7 -290.6 31.4 -292.5 0L0 0Z" fill="#3A5A40"></path></g><g transform="translate(0, 450)"><path d="M0 -292.5C27.6 -279.2 55.2 -266 83.7 -257.7C112.3 -249.5 141.7 -246.3 169.9 -233.8C198.1 -221.3 225.1 -199.5 236.6 -171.9C248.2 -144.4 244.3 -111.2 251.1 -81.6C257.8 -52 275.2 -26 292.5 0L0 0Z" fill="#3A5A40"></path></g></svg>