<svg id="visual" viewBox="0 0 900 450" width="900" height="450" xmlns="http://www.w3.org/2000/svg" xmlns:xlink="http://www.w3.org/1999/xlink" version="1.1"><rect x="0" y="0" width="900" height="450" fill="#A3B18A"></rect><defs><linearGradient id="grad1_0" x1="50%" y1="100%" x2="100%" y2="0%"><stop offset="10%" stop-color="#a3b18a" stop-opacity="1"></stop><stop offset="90%" stop-color="#a3b18a" stop-opacity="1"></stop></linearGradient></defs><defs><linearGradient id="grad2_0" x1="0%" y1="100%" x2="50%" y2="0%"><stop offset="10%" stop-color="#a3b18a" stop-opacity="1"></stop><stop offset="90%" stop-color="#a3b18a" stop-opacity="1"></stop></linearGradient></defs><g transform="translate(900, 450)"><path d="M-292.5 0C-277 -26.9 -261.6 -53.8 -252 -81.9C-242.5 -110 -238.9 -139.2 -225.7 -164C-212.6 -188.8 -189.9 -209.2 -166.3 -229C-142.8 -248.7 -118.3 -267.7 -90.4 -278.2C-62.5 -288.7 -31.3 -290.6 0 -292.5L0 0Z" fill="#3A5A40"></path></g><g transform="translate(0, 0)"><path d="M292.5 0C284.6 30.3 276.8 60.5 262.5 85.3C248.2 110 227.5 129.3 212.8 154.6C198 179.9 189.3 211.3 169.9 233.8C150.5 256.3 120.5 269.9 90.4 278.2C60.3 286.5 30.2 289.5 0 292.5L0 0Z" fill="#3A5A40"></path></g></svg>