<svg id="visual" viewBox="0 0 900 450" width="900" height="450" xmlns="http://www.w3.org/2000/svg" xmlns:xlink="http://www.w3.org/1999/xlink" version="1.1"><g stroke-width="1" stroke-linejoin="bevel"><path d="M483 176L524 103L410 127Z" fill="#3a5a40" stroke="#3a5a40"></path><path d="M524 103L432 0L410 127Z" fill="#4e6b4e" stroke="#4e6b4e"></path><path d="M492 0L432 0L524 103Z" fill="#637b5c" stroke="#637b5c"></path><path d="M483 176L594 127L524 103Z" fill="#446247" stroke="#446247"></path><path d="M524 103L637 0L492 0Z" fill="#637b5c" stroke="#637b5c"></path><path d="M328 187L360 211L410 127Z" fill="#829672" stroke="#829672"></path><path d="M410 127L360 211L483 176Z" fill="#8d9f7a" stroke="#8d9f7a"></path><path d="M483 176L606 187L594 127Z" fill="#a3b18a" stroke="#a3b18a"></path><path d="M463 308L606 187L483 176Z" fill="#3a5a40" stroke="#3a5a40"></path><path d="M268 70L328 187L410 127Z" fill="#6d8463" stroke="#6d8463"></path><path d="M326 255L378 281L360 211Z" fill="#4e6b4e" stroke="#4e6b4e"></path><path d="M360 211L378 281L483 176Z" fill="#778d6b" stroke="#778d6b"></path><path d="M378 281L463 308L483 176Z" fill="#a3b18a" stroke="#a3b18a"></path><path d="M606 187L663 104L594 127Z" fill="#637b5c" stroke="#637b5c"></path><path d="M594 127L637 0L524 103Z" fill="#6d8463" stroke="#6d8463"></path><path d="M328 187L326 255L360 211Z" fill="#3a5a40" stroke="#3a5a40"></path><path d="M432 0L268 70L410 127Z" fill="#829672" stroke="#829672"></path><path d="M328 187L237 233L326 255Z" fill="#829672" stroke="#829672"></path><path d="M663 104L637 0L594 127Z" fill="#8d9f7a" stroke="#8d9f7a"></path><path d="M463 308L639 274L606 187Z" fill="#587355" stroke="#587355"></path><path d="M606 187L703 155L663 104Z" fill="#446247" stroke="#446247"></path><path d="M378 281L418 347L463 308Z" fill="#6d8463" stroke="#6d8463"></path><path d="M463 308L608 347L639 274Z" fill="#4e6b4e" stroke="#4e6b4e"></path><path d="M295 360L418 347L378 281Z" fill="#3a5a40" stroke="#3a5a40"></path><path d="M432 0L268 0L268 70Z" fill="#6d8463" stroke="#6d8463"></path><path d="M639 274L662 253L606 187Z" fill="#829672" stroke="#829672"></path><path d="M662 253L703 155L606 187Z" fill="#3a5a40" stroke="#3a5a40"></path><path d="M663 104L733 0L637 0Z" fill="#637b5c" stroke="#637b5c"></path><path d="M268 70L231 202L328 187Z" fill="#829672" stroke="#829672"></path><path d="M326 255L295 360L378 281Z" fill="#3a5a40" stroke="#3a5a40"></path><path d="M160 56L231 202L268 70Z" fill="#98a882" stroke="#98a882"></path><path d="M231 202L237 233L328 187Z" fill="#587355" stroke="#587355"></path><path d="M514 383L608 347L463 308Z" fill="#637b5c" stroke="#637b5c"></path><path d="M639 274L716 341L662 253Z" fill="#6d8463" stroke="#6d8463"></path><path d="M418 347L514 383L463 308Z" fill="#637b5c" stroke="#637b5c"></path><path d="M806 59L733 0L663 104Z" fill="#4e6b4e" stroke="#4e6b4e"></path><path d="M237 233L295 360L326 255Z" fill="#4e6b4e" stroke="#4e6b4e"></path><path d="M418 347L499 450L514 383Z" fill="#8d9f7a" stroke="#8d9f7a"></path><path d="M268 0L179 0L268 70Z" fill="#587355" stroke="#587355"></path><path d="M231 202L113 180L237 233Z" fill="#8d9f7a" stroke="#8d9f7a"></path><path d="M179 0L160 56L268 70Z" fill="#98a882" stroke="#98a882"></path><path d="M662 253L781 186L703 155Z" fill="#3a5a40" stroke="#3a5a40"></path><path d="M806 59L772 0L733 0Z" fill="#a3b18a" stroke="#a3b18a"></path><path d="M768 328L781 186L662 253Z" fill="#8d9f7a" stroke="#8d9f7a"></path><path d="M806 59L663 104L703 155Z" fill="#587355" stroke="#587355"></path><path d="M514 383L563 450L608 347Z" fill="#829672" stroke="#829672"></path><path d="M608 347L716 341L639 274Z" fill="#6d8463" stroke="#6d8463"></path><path d="M373 450L499 450L418 347Z" fill="#778d6b" stroke="#778d6b"></path><path d="M660 450L716 341L608 347Z" fill="#8d9f7a" stroke="#8d9f7a"></path><path d="M781 186L806 59L703 155Z" fill="#587355" stroke="#587355"></path><path d="M295 360L373 450L418 347Z" fill="#6d8463" stroke="#6d8463"></path><path d="M499 450L563 450L514 383Z" fill="#a3b18a" stroke="#a3b18a"></path><path d="M237 233L230 385L295 360Z" fill="#587355" stroke="#587355"></path><path d="M295 360L281 450L373 450Z" fill="#98a882" stroke="#98a882"></path><path d="M139 373L230 385L237 233Z" fill="#98a882" stroke="#98a882"></path><path d="M83 98L113 180L160 56Z" fill="#6d8463" stroke="#6d8463"></path><path d="M160 56L113 180L231 202Z" fill="#3a5a40" stroke="#3a5a40"></path><path d="M716 341L768 328L662 253Z" fill="#637b5c" stroke="#637b5c"></path><path d="M781 186L900 66L806 59Z" fill="#3a5a40" stroke="#3a5a40"></path><path d="M763 450L768 328L716 341Z" fill="#6d8463" stroke="#6d8463"></path><path d="M230 385L281 450L295 360Z" fill="#6d8463" stroke="#6d8463"></path><path d="M563 450L660 450L608 347Z" fill="#4e6b4e" stroke="#4e6b4e"></path><path d="M96 0L83 98L160 56Z" fill="#446247" stroke="#446247"></path><path d="M179 0L96 0L160 56Z" fill="#4e6b4e" stroke="#4e6b4e"></path><path d="M900 383L816 308L768 328Z" fill="#4e6b4e" stroke="#4e6b4e"></path><path d="M768 328L816 308L781 186Z" fill="#3a5a40" stroke="#3a5a40"></path><path d="M70 254L237 233L113 180Z" fill="#637b5c" stroke="#637b5c"></path><path d="M70 254L139 373L237 233Z" fill="#637b5c" stroke="#637b5c"></path><path d="M230 385L180 450L281 450Z" fill="#a3b18a" stroke="#a3b18a"></path><path d="M0 219L70 254L113 180Z" fill="#6d8463" stroke="#6d8463"></path><path d="M900 203L900 66L781 186Z" fill="#4e6b4e" stroke="#4e6b4e"></path><path d="M806 59L900 0L772 0Z" fill="#829672" stroke="#829672"></path><path d="M64 450L180 450L139 373Z" fill="#829672" stroke="#829672"></path><path d="M139 373L180 450L230 385Z" fill="#829672" stroke="#829672"></path><path d="M900 230L900 203L781 186Z" fill="#6d8463" stroke="#6d8463"></path><path d="M660 450L763 450L716 341Z" fill="#637b5c" stroke="#637b5c"></path><path d="M816 308L900 230L781 186Z" fill="#778d6b" stroke="#778d6b"></path><path d="M900 383L900 230L816 308Z" fill="#446247" stroke="#446247"></path><path d="M900 66L900 0L806 59Z" fill="#587355" stroke="#587355"></path><path d="M0 0L0 118L83 98Z" fill="#6d8463" stroke="#6d8463"></path><path d="M83 98L0 118L113 180Z" fill="#778d6b" stroke="#778d6b"></path><path d="M0 118L0 219L113 180Z" fill="#446247" stroke="#446247"></path><path d="M70 254L0 389L139 373Z" fill="#98a882" stroke="#98a882"></path><path d="M96 0L0 0L83 98Z" fill="#a3b18a" stroke="#a3b18a"></path><path d="M0 219L0 269L70 254Z" fill="#6d8463" stroke="#6d8463"></path><path d="M763 450L900 383L768 328Z" fill="#98a882" stroke="#98a882"></path><path d="M0 389L64 450L139 373Z" fill="#8d9f7a" stroke="#8d9f7a"></path><path d="M0 269L0 389L70 254Z" fill="#3a5a40" stroke="#3a5a40"></path><path d="M763 450L900 450L900 383Z" fill="#4e6b4e" stroke="#4e6b4e"></path><path d="M0 389L0 450L64 450Z" fill="#637b5c" stroke="#637b5c"></path></g></svg>