<svg id="visual" viewBox="0 0 900 600" width="900" height="600" xmlns="http://www.w3.org/2000/svg" xmlns:xlink="http://www.w3.org/1999/xlink" version="1.1"><path d="M0 139L37.5 131C75 123 150 107 225 106C300 105 375 119 450 126C525 133 600 133 675 134C750 135 825 137 862.5 138L900 139L900 0L862.5 0C825 0 750 0 675 0C600 0 525 0 450 0C375 0 300 0 225 0C150 0 75 0 37.5 0L0 0Z" fill="#588157"></path><path d="M0 199L37.5 192C75 185 150 171 225 172C300 173 375 189 450 200C525 211 600 217 675 224C750 231 825 239 862.5 243L900 247L900 137L862.5 136C825 135 750 133 675 132C600 131 525 131 450 124C375 117 300 103 225 104C150 105 75 121 37.5 129L0 137Z" fill="#879f75"></path><path d="M0 325L37.5 323C75 321 150 317 225 326C300 335 375 357 450 374C525 391 600 403 675 414C750 425 825 435 862.5 440L900 445L900 245L862.5 241C825 237 750 229 675 222C600 215 525 209 450 198C375 187 300 171 225 170C150 169 75 183 37.5 190L0 197Z" fill="#a3b18a"></path><path d="M0 517L37.5 520C75 523 150 529 225 530C300 531 375 527 450 530C525 533 600 543 675 548C750 553 825 553 862.5 553L900 553L900 443L862.5 438C825 433 750 423 675 412C600 401 525 389 450 372C375 355 300 333 225 324C150 315 75 319 37.5 321L0 323Z" fill="#879f75"></path><path d="M0 601L37.5 601C75 601 150 601 225 601C300 601 375 601 450 601C525 601 600 601 675 601C750 601 825 601 862.5 601L900 601L900 551L862.5 551C825 551 750 551 675 546C600 541 525 531 450 528C375 525 300 529 225 528C150 527 75 521 37.5 518L0 515Z" fill="#588157"></path></svg>