<svg id="visual" viewBox="0 0 900 450" width="900" height="450" xmlns="http://www.w3.org/2000/svg" xmlns:xlink="http://www.w3.org/1999/xlink" version="1.1"><path d="M890 450L869 437.5C848 425 806 400 804.5 375C803 350 842 325 857 300C872 275 863 250 848 225C833 200 812 175 813.5 150C815 125 839 100 848 75C857 50 851 25 848 12.5L845 0L900 0L900 12.5C900 25 900 50 900 75C900 100 900 125 900 150C900 175 900 200 900 225C900 250 900 275 900 300C900 325 900 350 900 375C900 400 900 425 900 437.5L900 450Z" fill="#3a5a40"></path><path d="M800 450L792.5 437.5C785 425 770 400 773 375C776 350 797 325 801.5 300C806 275 794 250 780.5 225C767 200 752 175 765.5 150C779 125 821 100 837.5 75C854 50 845 25 840.5 12.5L836 0L846 0L849 12.5C852 25 858 50 849 75C840 100 816 125 814.5 150C813 175 834 200 849 225C864 250 873 275 858 300C843 325 804 350 805.5 375C807 400 849 425 870 437.5L891 450Z" fill="#436146"></path><path d="M791 450L780.5 437.5C770 425 749 400 743 375C737 350 746 325 747.5 300C749 275 743 250 729.5 225C716 200 695 175 704 150C713 125 752 100 777.5 75C803 50 815 25 821 12.5L827 0L837 0L841.5 12.5C846 25 855 50 838.5 75C822 100 780 125 766.5 150C753 175 768 200 781.5 225C795 250 807 275 802.5 300C798 325 777 350 774 375C771 400 786 425 793.5 437.5L801 450Z" fill="#4c694c"></path><path d="M773 450L755 437.5C737 425 701 400 687.5 375C674 350 683 325 692 300C701 275 710 250 701 225C692 200 665 175 666.5 150C668 125 698 100 726.5 75C755 50 782 25 795.5 12.5L809 0L828 0L822 12.5C816 25 804 50 778.5 75C753 100 714 125 705 150C696 175 717 200 730.5 225C744 250 750 275 748.5 300C747 325 738 350 744 375C750 400 771 425 781.5 437.5L792 450Z" fill="#557153"></path><path d="M476 450L495.5 437.5C515 425 554 400 573.5 375C593 350 593 325 588.5 300C584 275 575 250 555.5 225C536 200 506 175 527 150C548 125 620 100 627.5 75C635 50 578 25 549.5 12.5L521 0L810 0L796.5 12.5C783 25 756 50 727.5 75C699 100 669 125 667.5 150C666 175 693 200 702 225C711 250 702 275 693 300C684 325 675 350 688.5 375C702 400 738 425 756 437.5L774 450Z" fill="#5f7859"></path><path d="M476 450L494 437.5C512 425 548 400 557 375C566 350 548 325 540.5 300C533 275 536 250 524 225C512 200 485 175 506 150C527 125 596 100 599 75C602 50 539 25 507.5 12.5L476 0L522 0L550.5 12.5C579 25 636 50 628.5 75C621 100 549 125 528 150C507 175 537 200 556.5 225C576 250 585 275 589.5 300C594 325 594 350 574.5 375C555 400 516 425 496.5 437.5L477 450Z" fill="#688060"></path><path d="M422 450L431 437.5C440 425 458 400 468.5 375C479 350 482 325 477.5 300C473 275 461 250 447.5 225C434 200 419 175 444.5 150C470 125 536 100 543.5 75C551 50 500 25 474.5 12.5L449 0L477 0L508.5 12.5C540 25 603 50 600 75C597 100 528 125 507 150C486 175 513 200 525 225C537 250 534 275 541.5 300C549 325 567 350 558 375C549 400 513 425 495 437.5L477 450Z" fill="#728866"></path><path d="M377 450L386 437.5C395 425 413 400 429.5 375C446 350 461 325 452 300C443 275 410 250 398 225C386 200 395 175 414.5 150C434 125 464 100 468.5 75C473 50 452 25 441.5 12.5L431 0L450 0L475.5 12.5C501 25 552 50 544.5 75C537 100 471 125 445.5 150C420 175 435 200 448.5 225C462 250 474 275 478.5 300C483 325 480 350 469.5 375C459 400 441 425 432 437.5L423 450Z" fill="#7b906d"></path><path d="M269 450L290 437.5C311 425 353 400 375.5 375C398 350 401 325 380 300C359 275 314 250 302 225C290 200 311 175 347 150C383 125 434 100 438.5 75C443 50 401 25 380 12.5L359 0L432 0L442.5 12.5C453 25 474 50 469.5 75C465 100 435 125 415.5 150C396 175 387 200 399 225C411 250 444 275 453 300C462 325 447 350 430.5 375C414 400 396 425 387 437.5L378 450Z" fill="#859874"></path><path d="M134 450L129.5 437.5C125 425 116 400 125 375C134 350 161 325 173 300C185 275 182 250 179 225C176 200 173 175 177.5 150C182 125 194 100 182 75C170 50 134 25 116 12.5L98 0L360 0L381 12.5C402 25 444 50 439.5 75C435 100 384 125 348 150C312 175 291 200 303 225C315 250 360 275 381 300C402 325 399 350 376.5 375C354 400 312 425 291 437.5L270 450Z" fill="#8fa07b"></path><path d="M89 450L92 437.5C95 425 101 400 117.5 375C134 350 161 325 164 300C167 275 146 250 138.5 225C131 200 137 175 147.5 150C158 125 173 100 161 75C149 50 110 25 90.5 12.5L71 0L99 0L117 12.5C135 25 171 50 183 75C195 100 183 125 178.5 150C174 175 177 200 180 225C183 250 186 275 174 300C162 325 135 350 126 375C117 400 126 425 130.5 437.5L135 450Z" fill="#99a983"></path><path d="M0 450L0 437.5C0 425 0 400 0 375C0 350 0 325 0 300C0 275 0 250 0 225C0 200 0 175 0 150C0 125 0 100 0 75C0 50 0 25 0 12.5L0 0L72 0L91.5 12.5C111 25 150 50 162 75C174 100 159 125 148.5 150C138 175 132 200 139.5 225C147 250 168 275 165 300C162 325 135 350 118.5 375C102 400 96 425 93 437.5L90 450Z" fill="#a3b18a"></path></svg>